<svg xmlns="http://www.w3.org/2000/svg" width="375" viewBox="0 0 375 375" height="375" version="1.0"><defs><clipPath id="a"><path d="M 148 110.773438 L 227 110.773438 L 227 207 L 148 207 Z M 148 110.773438"/></clipPath><clipPath id="b"><path d="M 125.160156 219 L 249.660156 219 L 249.660156 264.523438 L 125.160156 264.523438 Z M 125.160156 219"/></clipPath></defs><g clip-path="url(#a)"><path fill="#FFF" d="M 187.394531 159 L 206.492188 206.175781 L 226.003906 206.175781 L 187.394531 110.773438 L 148.816406 206.175781 L 168.328125 206.175781 Z M 187.394531 159"/></g><g clip-path="url(#b)"><path fill="#FFF" d="M 231.511719 219.78125 L 212 219.78125 L 221.101562 242.296875 L 163.140625 219.78125 L 162.1875 221.375 L 162.820312 219.78125 L 143.308594 219.78125 L 125.199219 264.523438 L 144.710938 264.523438 L 156.425781 235.589844 L 229.953125 264.109375 L 230.109375 264.523438 L 249.621094 264.523438 Z M 231.511719 219.78125"/></g></svg>